                <svg width="1189" height="329" viewBox="0 0 1189 329" fill="none" xmlns="http://www.w3.org/2000/svg">
                    <g opacity="0.15">
                        <rect x="22.3492" width="19.3016" height="64" fill="#C4C4C4" />
                        <rect y="41.6508" width="19.3016" height="64" transform="rotate(-90 0 41.6508)"
                            fill="#C4C4C4" />
                    </g>
                    <g opacity="0.15">
                        <rect x="250.175" y="86" width="9.65079" height="32" fill="#C4C4C4" />
                        <rect x="239" y="106.825" width="9.65079" height="32" transform="rotate(-90 239 106.825)"
                            fill="#C4C4C4" />
                    </g>
                    <g opacity="0.15">
                        <rect x="1168.17" y="32" width="9.65079" height="32" fill="#C4C4C4" />
                        <rect x="1157" y="52.8254" width="9.65079" height="32" transform="rotate(-90 1157 52.8254)"
                            fill="#C4C4C4" />
                    </g>
                    <g opacity="0.15">
                        <rect x="463.571" y="40" width="10.8571" height="36" fill="#C4C4C4" />
                        <rect x="451" y="63.4286" width="10.8571" height="36" transform="rotate(-90 451 63.4286)"
                            fill="#C4C4C4" />
                    </g>
                    <g opacity="0.15">
                        <rect x="1045.57" y="293" width="10.8571" height="36" fill="#C4C4C4" />
                        <rect x="1033" y="316.429" width="10.8571" height="36" transform="rotate(-90 1033 316.429)"
                            fill="#C4C4C4" />
                    </g>
                    <g opacity="0.15">
                        <rect x="575.349" y="205" width="19.3016" height="64" fill="#C4C4C4" />
                        <rect x="553" y="246.651" width="19.3016" height="64" transform="rotate(-90 553 246.651)"
                            fill="#C4C4C4" />
                    </g>
                    <g opacity="0.15">
                        <rect x="878.349" y="76" width="19.3016" height="64" fill="#C4C4C4" />
                        <rect x="856" y="117.651" width="19.3016" height="64" transform="rotate(-90 856 117.651)"
                            fill="#C4C4C4" />
                    </g>
                </svg>